<?xml version="1.0" encoding="UTF-8"?>
<svg id="Layer_2" data-name="Layer 2" xmlns="http://www.w3.org/2000/svg" viewBox="0 0 576.87 540.89">
  <defs>
    <style>
      .cls-1 {
        fill: #000;
        stroke-width: 0px;
      }
    </style>
  </defs>
  <g id="Layer_1-2" data-name="Layer 1">
    <g>
      <path class="cls-1" d="M543.07,290.3c-15.81-1.12-70.87,1.74-80.52-.64-14.74-3.64-25.96-32.98-43.63-34.65-20.72-1.95-23.45,9.15-32.72,23.74l-20.85-145.32c-4.61-18.52-29.3-18.55-33.36,3.21-13.43,68.38-26.58,136.97-41.38,204.99-1.39.12-5.03-24.6-5.45-27.27-8.07-51.43-15.14-103.08-22.46-154.63-5.08-22.18-27.23-18.42-32.08-5.77l-25.98,121.58c-2.46,1.95-7.86-22.76-30.16-20.53-15.51,1.55-29.32,32.91-42.35,35.29-7.92,1.45-79.79-1.09-98.49,0-12.67-24.34-23.73-48.87-28.87-76.03C-7.54,149.28,2.33,84.74,53.85,39.43c70.52-62,179.69-49.14,234.83,26.31,88.85-120.97,274.01-62.95,287.12,76.67,5.05,53.75-8.01,100.97-32.72,147.89Z"/>
      <path class="cls-1" d="M344.82,259.09h1.28c3.61,14.35,6.42,33.95,8.98,49.08,1.66,9.78,3.33,36.17,7.7,42.99,3.79,5.91,17.47,11.04,26.95,1.28,5.89-6.07,20.51-38.74,27.27-48.44,2.53,4.18,10.19,10.13,14.76,10.91,9.09,1.54,81.46-1.16,101.05,0-42.57,71.7-111.16,140.18-179.33,187.99-7.75,5.44-56.65,37.05-61.59,37.85-9.03,1.46-23.84-8.62-32.08-13.47-80.64-47.52-168.43-131.57-215.9-212.37l117.41-.64c11.82-1.24,13.52-9.56,15.72-8.98,2.5.65,17.98,36.5,30.8,40.42,7.39,2.26,18.23-3.04,21.49-9.94,1.74-3.69,9.21-46.42,12.19-56.46h1.28c11.03,63.73,19.76,127.72,28.87,191.84,4.21,14.29,20.3,16.36,27.59,7.06,4.19-5.35,19.53-97.72,21.59-98.21"/>
    </g>
  </g>
</svg>